<svg xmlns="http://www.w3.org/2000/svg" viewBox="0 0 1122.23 1888"><defs><style>.a{fill:#f7f7ff;}.b{fill:#f9ea6c;}.c{fill:#f459a5;}.d{fill:#5f6cff;}.e{fill:#efefff;}.f{fill:#9c7ef0;}</style></defs><title>blog-xs</title><path class="a" d="M29.12,185.32C-10.64,317.82-35.13,573,131.64,646s419.5-73,459.24-205.46S518.78,97.5,352,24.46,68.86,52.81,29.12,185.32"/><path class="b" d="M700.61,327.4c7.15-1,14.36-6.33,13.32-14.16S704.55,301,697.4,302s-9.93,7.08-8.89,14.91S693.46,328.43,700.61,327.4Z"/><path class="c" d="M303.86,80c8,21.24,28.91,39.63,51.66,30.88s30.27-37.51,22.24-58.75-28.1-25.5-50.85-16.75S295.83,58.77,303.86,80Z"/><path class="d" d="M413.26,361.81c3-.43,6.07-2.68,5.63-6s-4-5.19-7-4.75-4.2,3-3.76,6.31S410.24,362.25,413.26,361.81Z"/><path class="e" d="M341.17,962.84c8.23-1.09,16.48-7,15.22-15.7s-10.9-13.78-19.13-12.69-11.38,7.83-10.12,16.58S332.95,963.92,341.17,962.84Z"/><path class="f" d="M612.22,1439.58c3.61,9.32,13,17.4,23.25,13.56s13.62-16.47,10-25.79-12.64-11.2-22.88-7.35S608.61,1430.25,612.22,1439.58Z"/><path class="a" d="M648.58,1869c122.32,28.79,362.27,42.5,445.59-92.74S1060.28,1442,938,1413.25s-331.45,65.66-414.77,200.92,3.05,226.08,125.39,254.84"/></svg>
