<svg xmlns="http://www.w3.org/2000/svg" viewBox="0 0 2005 2571"><defs><style>.a{fill:#f7f7ff;}.b{fill:#f9ea6c;mix-blend-mode:multiply;}.c{fill:#efefff;}.d{fill:#f459a5;}.e{fill:#9c7ef0;}</style></defs><title>blog</title><path class="a" d="M1136.92,511.88c96.6,158.77,329.47,412.57,552.33,311.85s304.18-484.12,207.54-642.88S1489.31-55.59,1266.43,45.16s-226.17,308-129.52,466.72"/><path class="b" d="M1617.75,851.52c7.39,19.43,26.65,36.26,47.61,28.25s27.9-34.32,20.5-53.75S1660,802.69,1639,810.7,1610.35,832.09,1617.75,851.52Z"/><path class="c" d="M414.39,2066.41c8.1-1.11,16.26-7,15-15.75s-10.69-13.73-18.79-12.61-11.24,7.86-10,16.61S406.29,2067.53,414.39,2066.41Z"/><path class="d" d="M162.35,474.84c14.39,37.81,51.86,70.56,92.65,55S309.3,463,294.9,425.22s-50.4-45.41-91.2-29.82S148,437,162.35,474.84Z"/><path class="a" d="M1295.16,2542.61c183.3,43.09,542.88,63.57,667.77-139s-50.7-500.66-234-543.72-496.71,98.43-621.61,301.05,4.52,338.64,187.84,381.68"/><path class="a" d="M799,881.66C752.11,832,690.18,799,623.68,779.66c-56.21-16.36-115.7-23-172.16-21.72-69.73,1.52-125.91,26.49-182.66,64.49-51.1,34.23-95.74,77.23-133.34,125.63C81,1018.22,33.36,1102.2,11.61,1188.51c-56.43,223.89,100.46,386.4,306.91,439.39,158.74,40.76,312.13,23.24,436.62-93.36,97.08-90.89,140.22-219.32,144.55-349.19C903.36,1076,874.38,961.45,799,881.66"/><path class="e" d="M1755.8,2065.51c7.52,19.43,27.1,36.25,48.43,28.24s28.38-34.31,20.85-53.73-26.34-23.32-47.67-15.32S1748.27,2046.08,1755.8,2065.51Z"/></svg>
