<svg xmlns="http://www.w3.org/2000/svg" xmlns:xlink="http://www.w3.org/1999/xlink" viewBox="0 0 656.89 2160.9"><defs><style>.a{fill:url(#a);}.b{fill:url(#b);mix-blend-mode:soft-light;}.c{fill:#5f6cff;}.d{fill:#b86cff;mix-blend-mode:multiply;}.e{fill:#f7f7ff;mix-blend-mode:multiply;}</style><linearGradient id="a" x1="219.75" y1="1301.14" x2="220.68" y2="1301.18" gradientTransform="matrix(423.33, 394.76, 470.95, -505.03, -705703.52, 570555.42)" gradientUnits="userSpaceOnUse"><stop offset="0" stop-color="#616cf6"/><stop offset="1" stop-color="#76e3d4"/></linearGradient><linearGradient id="b" x1="221.5" y1="1302.36" x2="220.6" y2="1301.91" gradientTransform="matrix(391.72, 6.84, 8.71, -498.74, -97466.7, 648165.04)" gradientUnits="userSpaceOnUse"><stop offset="0" stop-color="#ffde47"/><stop offset="1" stop-color="#f459a5"/></linearGradient></defs><title>home-xs</title><path class="a" d="M512.51,90.14C628,195.51,522.79,603.71,455.33,674.77S252.61,760.27,155,695.71-58.76,452.38,34,292,397-15.22,512.51,90.14Z"/><path class="b" d="M330.47,409.73c55.46,107.65,166.78,102.14,250.07,73.11s99.28-175,43.8-282.7S400.8-47.43,315.88,15.79,275,302.1,330.47,409.73Z"/><path class="c" d="M338.55,541.48c-36,56.68-77.28,169.1,4.08,212.21s233-6.23,269-62.91S610.82,533,529.45,489.92s-155-5.13-190.9,51.56"/><path class="d" d="M412.19,782.15c7.08-1,14.21-6.13,13.15-13.77s-9.34-12-16.43-11-9.82,6.87-8.76,14.52S405.11,783.13,412.19,782.15Z"/><path class="e" d="M503.69,1149.81c-19.65-20.82-45.59-34.64-73.45-42.75a241.51,241.51,0,0,0-72.12-9.1c-29.21.64-52.74,11.1-76.52,27a241,241,0,0,0-55.85,52.65c-22.84,29.4-42.8,64.6-51.91,100.77-23.64,93.83,42.08,161.94,128.56,184.15,66.49,17.08,130.75,9.74,182.9-39.13,40.66-38.09,58.74-91.92,60.55-146.35,1.53-45.82-10.6-93.83-42.17-127.27"/><path class="e" d="M95.35,733.12c14.42,37.89,52,70.7,92.83,55.09s54.4-66.92,40-104.8-50.49-45.49-91.38-29.88S80.92,695.23,95.35,733.12Z"/><path class="e" d="M382.55,2159.1c60.74,13.37,136-50.83,140.69-97s-46.58-108.28-107.32-121.66-93.16,27.43-97.84,73.58S321.82,2145.73,382.55,2159.1Z"/></svg>
