<svg xmlns="http://www.w3.org/2000/svg" xmlns:xlink="http://www.w3.org/1999/xlink" viewBox="0 0 2344.12 4072.18"><defs><style>.a{fill:#efefff;}.b{fill:url(#a);mix-blend-mode:multiply;}.c{fill:#f7f7ff;}.d{fill:#74d9d7;}.e{fill:url(#b);}.f{fill:url(#c);}.g{fill:url(#d);}.h{fill:url(#e);mix-blend-mode:soft-light;}.i{fill:#5f6cff;}.j{fill:#faa46f;}.k{fill:#b86cff;mix-blend-mode:multiply;}.l{fill:#a6b1e4;}.m{fill-opacity:0.8;fill:url(#f);}.n{fill:#9c7ef0;}.o{fill:#f459a5;}</style><linearGradient id="a" x1="1943.95" y1="-97.46" x2="1944.67" y2="-97.02" gradientTransform="translate(-142565.34 11326.5) scale(73.74 75.03)" gradientUnits="userSpaceOnUse"><stop offset="0" stop-color="#616cf6"/><stop offset="1" stop-color="#76e3d4"/></linearGradient><linearGradient id="b" x1="1917.33" y1="-138.5" x2="1918.05" y2="-138.05" gradientTransform="translate(-66216.89 7239.48) scale(35 40)" xlink:href="#a"/><linearGradient id="c" x1="1968.5" y1="-45.51" x2="1968.5" y2="-46.51" gradientTransform="matrix(-846.94, 431.54, -390.08, -765.57, 1650699.18, -884329.23)" gradientUnits="userSpaceOnUse"><stop offset="0" stop-color="#ffde47"/><stop offset="1" stop-color="#f459a5"/></linearGradient><linearGradient id="d" x1="1967.09" y1="-53.7" x2="1966.18" y2="-53.48" gradientTransform="matrix(1346.81, 286.27, -212, 997.37, -2658932, -508933.95)" xlink:href="#a"/><linearGradient id="e" x1="1968.39" y1="-45.49" x2="1968.39" y2="-46.77" xlink:href="#c"/><linearGradient id="f" x1="1962.11" y1="-59.42" x2="1962.88" y2="-58.86" gradientTransform="translate(-581332.83 25343.67) scale(296.46 409.45)" xlink:href="#c"/></defs><title>home-new</title><path class="a" d="M839.21,3973c15.7-54.63,23.6-158.1-48.68-181.93s-179.2,43.35-194.9,98,34.43,135.61,106.72,159.43S823.51,4027.65,839.2,3973"/><path class="b" d="M775.12,4041.89c7.39,19.43,26.65,36.26,47.61,28.25s27.9-34.32,20.5-53.75-25.9-23.33-46.87-15.33S767.72,4022.46,775.12,4041.89Z"/><path class="c" d="M1465.32,3848.29C1659.25,3891,1899.53,3686,1914.5,3538.7s-148.72-345.7-342.63-388.4-297.41,87.57-312.37,234.89S1271.44,3805.59,1465.32,3848.29Z"/><path class="d" d="M1296.84,2162.9c4.59,8.57,14.62,15.25,24,10.33s11.19-17.51,6.6-26.07-13.53-9.31-23-4.39S1292.25,2154.34,1296.84,2162.9Z"/><path class="e" d="M886.31,1713.93c3.51,10.36,12.65,19.33,22.6,15.06s13.24-18.3,9.73-28.66-12.29-12.44-22.25-8.17S882.79,1703.57,886.31,1713.93Z"/><path class="f" d="M1148.94,794.31c164.84,194,265.6,45.76,506.53-71.88s492.64-124.58,327.75-318.6-655-443.15-896-325.47S984,600.32,1148.94,794.31Z"/><path class="g" d="M1010.46,78C655.28,80.63,433.63,526.74,528.11,802.77S999.62,1130.61,1354.73,1128s561-60.55,466.57-336.6S1365.63,75.38,1010.46,78"/><path class="h" d="M1203.67,959.36c211.9,249.38,341.42,58.82,651.14-92.4s633.28-160.15,421.32-409.56S1434.13-112.25,1124.33,39,991.64,710,1203.67,959.36Z"/><path class="i" d="M1425.18,1266c140,100.58,430.67,232.91,584.39,66.1s84.22-523.72-55.77-624.27-433.44-54.21-587.16,112.63-81.46,345,58.54,445.54"/><path class="j" d="M1737.8,2319.8c7.52,19.43,27.1,36.25,48.43,28.24s28.38-34.31,20.85-53.73-26.34-23.32-47.67-15.32S1730.27,2300.38,1737.8,2319.8Z"/><path class="d" d="M272,1031.87c7.39,19.43,26.65,36.26,47.61,28.25s27.9-34.32,20.5-53.75S314.23,983,293.26,991,264.62,1012.44,272,1031.87Z"/><path class="k" d="M1671,1409.07c12.82-1.76,25.72-11.08,23.8-24.92s-16.91-21.73-29.73-20-17.78,12.44-15.86,26.28S1658.23,1410.84,1671,1409.07Z"/><path class="l" d="M153.45,572.4c12,31.41,43.08,58.62,77,45.67s45.1-55.48,33.14-86.89-41.87-37.72-75.77-24.78S141.49,541,153.45,572.4Z"/><path class="m" d="M347.57,962.57c-57.4,82.88-22,196,37.89,277.06S531.65,1368.88,589,1286s9.81-195.19-50-276.21-134-130.1-191.43-47.2"/><path class="n" d="M1055.88,1251.07c3.07-.42,6.17-2.66,5.71-6s-4.05-5.21-7.13-4.79-4.26,3-3.8,6.3S1052.8,1251.49,1055.88,1251.07Z"/><path class="c" d="M799,2219c-46.9-49.68-108.84-82.65-175.33-102-56.21-16.36-115.7-23-172.16-21.72-69.73,1.52-125.91,26.49-182.66,64.49C217.75,2194,173.11,2237,135.51,2285.4,81,2355.52,33.36,2439.5,11.61,2525.8c-56.43,223.89,100.46,386.4,306.91,439.39,158.74,40.76,312.13,23.24,436.62-93.36,97.08-90.89,140.22-219.32,144.55-349.19,3.67-109.33-25.31-223.9-100.69-303.64"/><path class="c" d="M1341,1739.17c14.42,37.89,52,70.7,92.83,55.09s54.4-66.92,40-104.8-50.49-45.49-91.38-29.88S1326.6,1701.29,1341,1739.17Z"/><path class="o" d="M194.69,1317.2c6.76-.5,13.4-4.32,12.08-10.47s-9.44-9.95-16.2-9.45-9.16,5.1-7.84,11.24S187.93,1317.7,194.69,1317.2Z"/></svg>
