<svg xmlns="http://www.w3.org/2000/svg" viewBox="0 0 1374.05 877.49"><defs><style>.a{fill-opacity:0.2;}</style></defs><title>quiz-bg</title><path class="a" d="M406.29,839.77c38.6-24.4,100-82.68,74.24-137s-120.3-72.67-158.9-48.26S265.3,755.6,291,809.93s76.67,54.26,115.27,29.84"/><path class="a" d="M18.27,244.85C-24.66,375.68,4.3,542.53,145.56,588.7s286.62-60.36,329.51-191.2-36-228-177.34-274.21S61.16,114,18.27,244.85Z"/><path class="a" d="M1060.81,317c-19.33,89.07,25.39,203.78,104,207.69s186.57-98.89,205.9-188S1323.88,100.91,1245.32,97s-165.18,131-184.51,220"/><path class="a" d="M1055.12,23.32c4.56,8.64,14.51,15.39,23.84,10.46s11.05-17.61,6.49-26.26-13.42-9.4-22.75-4.47S1050.55,14.67,1055.12,23.32Z"/><path class="a" d="M671,865.37c4.56,8.64,14.51,15.39,23.84,10.46s11.05-17.61,6.49-26.26-13.42-9.4-22.75-4.47S666.47,856.72,671,865.37Z"/><path class="a" d="M964.54,758c11.46,21.71,36.45,38.66,59.87,26.26s27.76-44.24,16.29-66-33.71-23.62-57.14-11.22S953.07,736.34,964.54,758Z"/><path d="M809.34,251.85c-117.87-63.72-359.88-143-479.26-20.82s-49.7,366.56,68.18,430.25,355.65,19,475-103.17,53.94-242.58-64-306.27"/><path d="M809.34,251.85c-117.87-63.72-359.88-143-479.26-20.82s-49.7,366.56,68.18,430.25,355.65,19,475-103.17,53.94-242.58-64-306.27"/><path d="M1018.63,583.63C850.56,676.71,501.51,799.17,316.94,644.8s-101.13-484.65,67-577.7,520.44-50.17,705,104.23,97.81,319.26-70.29,412.3"/></svg>
