<svg xmlns="http://www.w3.org/2000/svg" viewBox="0 0 2005.91 4472.38"><defs><style>.a{fill:#f7f7ff;}.b{fill:#9c7ef0;}.c{fill:#74d9d7;mix-blend-mode:multiply;}.d{fill:#efefff;}.e{fill:#5f6cff;}</style></defs><title>sector</title><path class="a" d="M314.24,3863.46C184.84,3908.82-34,4037.93,4.48,4214.21S307.18,4508,436.57,4462.59s233.13-257.78,194.61-434.08-187.55-210.45-316.93-165.05"/><path class="a" d="M1205.91,511.88c96.6,158.77,329.47,412.57,552.33,311.85s304.18-484.12,207.54-642.88S1558.31-55.59,1335.43,45.16s-226.17,308-129.52,466.72"/><path class="b" d="M1824.79,2065.51c7.52,19.43,27.1,36.25,48.43,28.24s28.38-34.31,20.85-53.73-26.34-23.32-47.67-15.32S1817.26,2046.08,1824.79,2065.51Z"/><path class="c" d="M1686.74,851.52c7.39,19.43,26.65,36.26,47.61,28.25s27.9-34.32,20.5-53.75S1729,802.69,1708,810.7,1679.34,832.09,1686.74,851.52Z"/><path class="d" d="M483.38,2066.41c8.1-1.11,16.26-7,15-15.75s-10.69-13.73-18.79-12.61-11.24,7.86-10,16.61S475.28,2067.53,483.38,2066.41Z"/><path class="b" d="M231.35,474.84c14.39,37.81,51.86,70.56,92.65,55s54.29-66.79,39.89-104.6-50.4-45.41-91.2-29.82S216.95,437,231.35,474.84Z"/><path class="e" d="M950.59,743.62c3.07-.42,6.17-2.66,5.71-6s-4.05-5.21-7.13-4.79-4.26,3-3.8,6.3S947.52,744,950.59,743.62Z"/><path class="c" d="M1097.52,3029.23c4.11,10.62,14.82,19.81,26.47,15.44s15.51-18.76,11.4-29.37-14.4-12.75-26.06-8.38S1093.41,3018.62,1097.52,3029.23Z"/><path class="a" d="M876,1094.66c-46.9-49.68-108.84-82.65-175.33-102-56.21-16.36-115.7-23-172.16-21.72-69.73,1.52-125.91,26.49-182.66,64.49-51.1,34.23-95.74,77.23-133.34,125.63C158,1231.22,110.35,1315.2,88.6,1401.51c-56.43,223.89,100.46,386.4,306.91,439.39,158.74,40.76,312.13,23.24,436.62-93.36,97.08-90.89,140.22-219.32,144.55-349.19C980.35,1289,951.37,1174.45,876,1094.66"/></svg>
