<svg xmlns="http://www.w3.org/2000/svg" viewBox="0 0 845.79 3844.87"><defs><style>.a{fill:#f7f7ff;}.b{fill:#74d9d7;mix-blend-mode:multiply;}.c{fill:#9c7ef0;}.d{fill:#efefff;}</style></defs><title>sector-xs</title><path class="a" d="M276.12,185.29C236.38,317.78,211.93,572.94,378.66,646S798,573.08,837.75,440.59,765.63,97.53,598.87,24.47s-283,28.32-322.75,160.82"/><path class="b" d="M520.73,678.16c7.15-1,14.36-6.33,13.32-14.16s-9.38-12.26-16.52-11.23-9.93,7.08-8.89,14.91S513.58,679.19,520.73,678.16Z"/><path class="c" d="M124,430.76c8,21.24,28.91,39.63,51.66,30.88s30.27-37.51,22.24-58.75-28.1-25.5-50.85-16.75S116,409.53,124,430.76Z"/><path class="d" d="M161.29,1313.6c8.23-1.09,16.48-7,15.22-15.7s-10.9-13.78-19.13-12.69S146,1293,147.27,1301.78,153.07,1314.69,161.29,1313.6Z"/><path class="c" d="M432.34,1790.34c3.61,9.32,13,17.4,23.25,13.56s13.62-16.47,10-25.79-12.64-11.2-22.88-7.35S428.73,1781,432.34,1790.34Z"/><path class="a" d="M121.25,3841.56c112.34,24.71,251.53-93.91,260.2-179.16S295.3,3462.34,183,3437.63,10.69,3488.31,2,3573.57,8.94,3816.84,121.25,3841.56Z"/></svg>
