<svg xmlns="http://www.w3.org/2000/svg" xmlns:xlink="http://www.w3.org/1999/xlink" viewBox="0 0 2100.91 1670.79"><defs><style>.a{fill:#efefff;}.b{fill:#9c7ef0;}.c{fill:#74d9d7;mix-blend-mode:multiply;}.d{fill-opacity:0.8;fill:url(#a);}.e{fill:#5f6cff;}.f{fill:#f7f7ff;}</style><linearGradient id="a" x1="1127.4" y1="1104.73" x2="1126.4" y2="1104.73" gradientTransform="matrix(-72.87, 121.27, 123.39, 74.14, -53620.39, -218100.37)" gradientUnits="userSpaceOnUse"><stop offset="0" stop-color="#ffde47"/><stop offset="1" stop-color="#f459a5"/></linearGradient></defs><title>services</title><path class="a" d="M1300.92,511.88c96.6,158.77,329.47,412.57,552.33,311.85s304.18-484.12,207.54-642.88S1653.31-55.59,1430.43,45.16s-226.17,308-129.52,466.72"/><path class="b" d="M329.8,835.51c7.52,19.43,27.11,36.25,48.43,28.24s28.38-34.31,20.85-53.73-26.34-23.32-47.67-15.32S322.27,816.08,329.8,835.51Z"/><path class="c" d="M1879.72,799.81c4.63,12.17,16.69,22.71,29.83,17.7s17.48-21.5,12.84-33.67-16.22-14.62-29.36-9.6S1875.09,787.64,1879.72,799.81Z"/><path class="d" d="M605.28,405.25c-39.27-7-86,8-93.52,50.39s28.88,79.8,68.14,86.83,64-19.54,71.52-61.94S644.55,412.28,605.28,405.25Z"/><path class="e" d="M1331.6,678.62c3.07-.42,6.17-2.66,5.71-6s-4.05-5.21-7.13-4.79-4.26,3-3.8,6.3S1328.52,679,1331.6,678.62Z"/><path class="e" d="M519.23,421.46c3.31,8.55,11.93,15.95,21.31,12.43s12.49-15.1,9.17-23.64-11.59-10.26-21-6.74S515.92,412.92,519.23,421.46Z"/><path class="f" d="M591.27,1103.51c-34.71-36.79-80.54-61.2-129.75-75.52-41.6-12.12-85.62-17-127.4-16.09C282.53,1013,241,1031.52,199,1059.65c-37.81,25.34-70.84,57.18-98.67,93-40.34,52-75.6,114.14-91.7,178-41.76,165.78,74.34,286.11,227.12,325.35,117.46,30.18,231,17.2,323.1-69.13,71.84-67.3,103.76-162.39,107-258.56,2.71-81-18.73-165.78-74.5-224.86"/></svg>
