<svg xmlns="http://www.w3.org/2000/svg" xmlns:xlink="http://www.w3.org/1999/xlink" viewBox="0 0 703.69 2985.9"><defs><style>.a{fill:url(#a);}.b{fill:url(#b);mix-blend-mode:soft-light;}.c{fill:#b86cff;}.d{fill:#f7f7ff;}.e{fill:url(#c);mix-blend-mode:multiply;}.f{fill:#74d9d7;mix-blend-mode:multiply;}.g{fill:#9c7ef0;}</style><linearGradient id="a" x1="266.74" y1="1714.48" x2="266.77" y2="1713.55" gradientTransform="matrix(-364.27, 449.84, 536.65, 434.57, -822336.9, -864521.3)" gradientUnits="userSpaceOnUse"><stop offset="0" stop-color="#616cf6"/><stop offset="1" stop-color="#76e3d4"/></linearGradient><linearGradient id="b" x1="268.28" y1="1718.18" x2="267.39" y2="1717.73" gradientTransform="matrix(391.72, 6.84, 8.71, -498.74, -119367.5, 855233.94)" gradientUnits="userSpaceOnUse"><stop offset="0" stop-color="#ffde47"/><stop offset="1" stop-color="#f459a5"/></linearGradient><linearGradient id="c" x1="265.29" y1="1743.96" x2="264.29" y2="1743.96" gradientTransform="matrix(43.74, 0, 0, -44.5, -11328.23, 80542.13)" xlink:href="#b"/></defs><title>about-xs</title><path class="a" d="M661,524.53C564,647.1,149.44,570.61,73.85,508.27S-25.58,312,32,210.13,259.84-20.08,426.29,61.22,758.09,401.94,661,524.53Z"/><path class="b" d="M377.27,409.73c55.46,107.65,166.78,102.14,250.07,73.11s99.28-175,43.8-282.7S447.61-47.43,362.68,15.79,321.79,302.1,377.27,409.73Z"/><path class="c" d="M486.12,720c6.8-.93,13.64-5.88,12.62-13.21s-9-11.52-15.76-10.58-9.43,6.6-8.41,13.93S479.32,721,486.12,720Z"/><path class="d" d="M206.3,1352.33a17.25,17.25,0,0,0-7.79-4.47,26,26,0,0,0-7.65-1,14.81,14.81,0,0,0-8.12,2.83,25.42,25.42,0,0,0-5.93,5.51,29.42,29.42,0,0,0-5.51,10.54c-2.51,9.81,4.46,16.93,13.64,19.25,7.05,1.79,13.87,1,19.41-4.09,4.31-4,6.23-9.61,6.42-15.3.16-4.79-1.13-9.81-4.47-13.31"/><path class="d" d="M133.36,2984.1c60.74,13.37,136-50.83,140.69-97s-46.58-108.28-107.32-121.66-93.16,27.43-97.84,73.58S72.63,2970.73,133.36,2984.1Z"/><path class="f" d="M374.63,1918.72c4.59,8.57,14.62,15.25,24,10.33s11.19-17.51,6.6-26.07-13.53-9.31-23-4.39S370,1910.15,374.63,1918.72Z"/><path class="g" d="M447.37,1967.07c1.44,2.69,4.59,4.79,7.55,3.25s3.52-5.5,2.07-8.19-4.25-2.92-7.21-1.38S445.93,1964.38,447.37,1967.07Z"/><path class="f" d="M126.73,541.5c5.21,13.73,18.79,25.61,33.58,20s19.68-24.24,14.46-38S156.5,507,141.72,512.66,121.51,527.77,126.73,541.5Z"/></svg>
