<svg xmlns="http://www.w3.org/2000/svg" xmlns:xlink="http://www.w3.org/1999/xlink" viewBox="0 0 2068.2 3171.35"><defs><style>.a{fill:#efefff;}.b{fill:url(#a);mix-blend-mode:multiply;}.c{fill:#74d9d7;mix-blend-mode:multiply;}.d{fill:#9c7ef0;}.e{fill:#f459a5;}.f{fill:url(#b);}.g{fill:url(#c);}.h{fill:#f7f7ff;}.i{fill:#b86cff;}</style><linearGradient id="a" x1="995.92" y1="2077.61" x2="994.92" y2="2077.61" gradientTransform="matrix(73.74, 0, 0, -75.03, -71807.66, 159008.24)" gradientUnits="userSpaceOnUse"><stop offset="0" stop-color="#ffde47"/><stop offset="1" stop-color="#f459a5"/></linearGradient><linearGradient id="b" x1="1005.63" y1="2063.88" x2="1005.63" y2="2064.88" gradientTransform="matrix(839.28, -446.25, -403.38, -758.65, -9698.14, 2015792.89)" xlink:href="#a"/><linearGradient id="c" x1="1007.23" y1="2063.29" x2="1006.32" y2="2063.06" gradientTransform="matrix(-402.73, -1169.63, -1004.08, 345.73, 2478153.65, 464977.94)" gradientUnits="userSpaceOnUse"><stop offset="0" stop-color="#616cf6"/><stop offset="1" stop-color="#76e3d4"/></linearGradient></defs><title>about</title><path class="a" d="M1619.52,3072.45c15.71-54.63,23.6-158.1-48.68-181.93s-179.2,43.35-194.9,98,34.43,135.61,106.72,159.43,121.16-20.85,136.85-75.49"/><path class="b" d="M1555.55,3141.06c7.39,19.43,26.65,36.26,47.61,28.25s27.9-34.32,20.5-53.75-25.9-23.33-46.87-15.33S1548.15,3121.63,1555.55,3141.06Z"/><path class="c" d="M1347.13,2452.15c4.59,8.57,14.62,15.25,24,10.33s11.19-17.51,6.6-26.07-13.53-9.31-23-4.39S1342.54,2443.58,1347.13,2452.15Z"/><path class="d" d="M1419.5,2500.13c1.44,2.69,4.59,4.79,7.55,3.25s3.52-5.5,2.07-8.19-4.25-2.92-7.21-1.38S1418.05,2497.43,1419.5,2500.13Z"/><path class="e" d="M245,1606.44c6.76-.5,13.4-4.32,12.08-10.47s-9.44-9.95-16.2-9.45-9.16,5.1-7.84,11.24S238.22,1606.94,245,1606.44Z"/><path class="f" d="M1868.14,466.61c-168.2-191.11-266.36-41.12-505.2,80.71S872.55,680.48,1040.8,871.59s662.66,431.65,901.53,309.79S2036.41,657.69,1868.14,466.61Z"/><path class="g" d="M672,1085.73c176.72,268.73,688.07,210.54,890.79-1.6s64.4-525.17-112.25-793.87-330-395.84-532.75-183.7S495.28,817,672,1085.73"/><path class="h" d="M215.65,2295.59c-88.8,31.13-239,119.73-212.57,240.7s207.73,201.6,296.52,170.45,160-176.9,133.55-297.89-128.7-144.42-217.5-113.27"/><path class="h" d="M1798.09,2583c7.52,19.43,27.1,36.25,48.43,28.24s28.38-34.31,20.85-53.73-26.34-23.32-47.67-15.32S1790.56,2563.62,1798.09,2583Z"/><path class="c" d="M581,956.06c7.39,19.43,26.65,36.26,47.61,28.25s27.9-34.32,20.5-53.75-25.9-23.33-46.87-15.33S573.64,936.63,581,956.06Z"/><path class="i" d="M181.74,1168.64c12,31.41,43.08,58.62,77,45.67s45.1-55.48,33.14-86.89-41.87-37.72-75.77-24.78S169.78,1137.23,181.74,1168.64Z"/><path class="d" d="M969.89,1605.15c3.07-.42,6.17-2.66,5.71-6s-4.05-5.21-7.13-4.79-4.26,3-3.8,6.3S966.81,1605.58,969.89,1605.15Z"/></svg>
