<svg xmlns="http://www.w3.org/2000/svg" viewBox="0 0 787.25 2564.62"><defs><style>.a{fill:#f7f7ff;}.b{fill:#74d9d7;}.c{fill:#9c7ef0;}.d{fill:#5f6cff;}.e{fill:#efefff;}</style></defs><title>work-bg-xs</title><path class="a" d="M217.59,185.29C177.85,317.78,153.39,572.94,320.12,646s419.37-72.91,459.09-205.41S707.09,97.53,540.34,24.47s-283,28.32-322.75,160.82"/><path class="b" d="M462.19,678.16c7.15-1,14.36-6.33,13.32-14.16s-9.38-12.26-16.52-11.23-9.93,7.08-8.89,14.91S455,679.19,462.19,678.16Z"/><path class="c" d="M65.45,430.76c8,21.24,28.91,39.63,51.66,30.88s30.27-37.51,22.24-58.75-28.1-25.5-50.85-16.75S57.42,409.53,65.45,430.76Z"/><path class="d" d="M174.85,712.57c3-.43,6.07-2.68,5.63-6s-4-5.19-7-4.75-4.2,3-3.76,6.31S171.83,713,174.85,712.57Z"/><path class="e" d="M102.76,1313.6c8.23-1.09,16.48-7,15.22-15.7s-10.9-13.78-19.13-12.69-11.38,7.83-10.12,16.58S94.53,1314.69,102.76,1313.6Z"/><path class="a" d="M158.41,2545.63c122.32,28.79,362.27,42.5,445.59-92.74s-33.89-334.26-156.22-363S116.34,2155.53,33,2290.79s3.05,226.08,125.39,254.84"/></svg>